<mxfile host="app.diagrams.net" modified="2023-03-06T02:05:22.954Z" agent="5.0 (Windows)" etag="wQ6-Bmtf3gLaaUoTInbI" version="21.0.2" type="github">
  <diagram name="Page-1" id="Z_ED3jf6UnTRmG_rgE2W">
    <mxGraphModel dx="1050" dy="558" grid="1" gridSize="10" guides="1" tooltips="1" connect="1" arrows="1" fold="1" page="1" pageScale="1" pageWidth="850" pageHeight="1100" math="0" shadow="0">
      <root>
        <mxCell id="0" />
        <mxCell id="1" parent="0" />
        <mxCell id="SLh3jzzg5wYFlg9FP0NA-1" value="" style="ellipse;whiteSpace=wrap;html=1;aspect=fixed;" vertex="1" parent="1">
          <mxGeometry x="380" y="260" width="80" height="80" as="geometry" />
        </mxCell>
      </root>
    </mxGraphModel>
  </diagram>
</mxfile>
